<svg width="37" height="38" viewBox="0 0 37 38" fill="none" xmlns="http://www.w3.org/2000/svg">
<g id="Arrow Circle Right">
<path id="Vector" d="M19.59 26.2567L25.7562 20.0905C26.0442 19.8006 26.2059 19.4086 26.2059 19C26.2059 18.5914 26.0442 18.1994 25.7562 17.9095L19.59 11.7434C19.3001 11.4587 18.9094 11.2999 18.503 11.3018C18.0966 11.3036 17.7073 11.4659 17.42 11.7533C17.1326 12.0406 16.9703 12.4299 16.9685 12.8363C16.9666 13.2427 17.1254 13.6334 17.4101 13.9233L20.9451 17.4584H12.3334C11.9245 17.4584 11.5324 17.6208 11.2433 17.9099C10.9542 18.199 10.7917 18.5912 10.7917 19C10.7917 19.4089 10.9542 19.8011 11.2433 20.0902C11.5324 20.3793 11.9245 20.5417 12.3334 20.5417H20.9451L17.41 24.0768C17.124 24.3665 16.9641 24.7576 16.9654 25.1647C16.9667 25.5719 17.129 25.962 17.4169 26.2499C17.7048 26.5378 18.0949 26.7001 18.5021 26.7013C18.9092 26.7026 19.3003 26.5428 19.59 26.2567Z" fill="#ED017F"/>
<path id="Vector_2" d="M33.9166 19C33.9166 15.9509 33.0124 12.9703 31.3184 10.435C29.6244 7.89975 27.2167 5.92376 24.3996 4.7569C21.5826 3.59005 18.4828 3.28475 15.4923 3.87961C12.5017 4.47446 9.75476 5.94276 7.5987 8.09882C5.44264 10.2549 3.97434 13.0019 3.37949 15.9924C2.78463 18.9829 3.08993 22.0827 4.25678 24.8998C5.42363 27.7168 7.39963 30.1245 9.93488 31.8185C12.4701 33.5125 15.4508 34.4167 18.4999 34.4167C22.5873 34.4122 26.5059 32.7865 29.3961 29.8963C32.2863 27.0061 33.912 23.0874 33.9166 19ZM17.41 26.2567C17.2668 26.1136 17.1532 25.9436 17.0757 25.7566C16.9982 25.5696 16.9583 25.3691 16.9583 25.1667C16.9583 24.9642 16.9982 24.7638 17.0757 24.5767C17.1532 24.3897 17.2668 24.2198 17.41 24.0767L20.9449 20.5417H12.3333C11.9244 20.5417 11.5323 20.3793 11.2431 20.0902C10.954 19.8011 10.7916 19.4089 10.7916 19C10.7916 18.5912 10.954 18.199 11.2431 17.9099C11.5323 17.6208 11.9244 17.4584 12.3333 17.4584H20.9449L17.41 13.9233C17.1252 13.6334 16.9665 13.2427 16.9683 12.8363C16.9702 12.4299 17.1324 12.0406 17.4198 11.7532C17.7072 11.4659 18.0964 11.3036 18.5028 11.3018C18.9092 11.2999 19.2999 11.4587 19.5899 11.7434L25.7561 17.9096C26.0441 18.1995 26.2057 18.5915 26.2057 19.0001C26.2057 19.4087 26.0441 19.8007 25.7561 20.0906L19.5899 26.2567C19.4468 26.3999 19.2769 26.5134 19.0898 26.5909C18.9028 26.6684 18.7024 26.7083 18.4999 26.7083C18.2975 26.7083 18.097 26.6684 17.91 26.5909C17.723 26.5134 17.5531 26.3999 17.41 26.2567Z" fill="#FCE0EF"/>
</g>
</svg>
